<svg id="Component_3_2" data-name="Component 3 – 2" xmlns="http://www.w3.org/2000/svg" xmlns:xlink="http://www.w3.org/1999/xlink" width="45" height="45" viewBox="0 0 45 45">
  <defs>
    <clipPath id="clip-path">
      <ellipse id="Ellipse_3" data-name="Ellipse 3" cx="20.5" cy="20" rx="20.5" ry="20" transform="translate(0)" fill="#3f75e2" stroke="#707070" stroke-width="1"/>
    </clipPath>
    <linearGradient id="linear-gradient" x1="0.5" y1="0.404" x2="0.5" y2="0.015" gradientUnits="objectBoundingBox">
      <stop offset="0" stop-color="#ffa"/>
      <stop offset="1" stop-color="#ffa800"/>
    </linearGradient>
    <clipPath id="clip-path-2">
      <ellipse id="Ellipse_4" data-name="Ellipse 4" cx="20.5" cy="20" rx="20.5" ry="20" transform="translate(0)" fill="#77a4ff" stroke="#707070" stroke-width="1"/>
    </clipPath>
    <linearGradient id="linear-gradient-2" x1="0.5" x2="0.5" y2="1" gradientUnits="objectBoundingBox">
      <stop offset="0" stop-color="#abc7ff"/>
      <stop offset="1" stop-color="#3f75e2"/>
    </linearGradient>
  </defs>
  <g id="Group_9" data-name="Group 9" transform="translate(-305 -10)">
    <g id="Group_2" data-name="Group 2" transform="translate(305 10)">
      <g id="Container" fill="#c3d7ff" stroke="#c3d7ff" stroke-width="15">
        <circle cx="22.5" cy="22.5" r="22.5" stroke="none"/>
        <circle cx="22.5" cy="22.5" r="15" fill="none"/>
      </g>
      <g id="Pelota" transform="translate(2 2)">
        <g id="Water_back" data-name="Water back" clip-path="url(#clip-path)">
          <g id="Water" transform="translate(-49.373 15.143)">
            <path id="Path_5" data-name="Path 5" d="M0,6.757,0,35.713l44.993-.053L45.02,6.889S41.775-1.258,33.319.167s-12.4,13.76-21.037,13.965S0,6.757,0,6.757Z" transform="translate(44.829 0)" fill="url(#linear-gradient)"/>
          </g>
        </g>
        <g id="Water_front" data-name="Water front" clip-path="url(#clip-path-2)">
          <g id="Water-2" data-name="Water" transform="translate(-4.448 15.143)">
            <path id="Path_7" data-name="Path 7" d="M0,28.956,0,0,44.995.053l.025,28.771s-3.245,8.147-11.7,6.721-12.4-13.76-21.037-13.965S0,28.956,0,28.956Z" transform="translate(45.02 35.713) rotate(180)" fill="url(#linear-gradient-2)"/>
          </g>
        </g>
      </g>
      <path id="Subtraction_1" data-name="Subtraction 1" d="M1.879,44.233c-.514,0-1.034-.019-1.544-.055a21.487,21.487,0,0,0,14.081-7.043,22.28,22.28,0,0,0,5.748-14.992A22.013,22.013,0,0,0,0,.082C.621.027,1.253,0,1.879,0A21.653,21.653,0,0,1,4.1.114a21.256,21.256,0,0,1,4.236.88c.674.213,1.345.464,1.994.744a21.588,21.588,0,0,1,3.688,2.039,21.957,21.957,0,0,1,3.213,2.7A22.192,22.192,0,0,1,19.88,9.751a22.252,22.252,0,0,1,2,3.757c.275.662.521,1.346.73,2.032s.392,1.407.535,2.12.256,1.461.329,2.2.112,1.507.112,2.261-.038,1.515-.112,2.261-.184,1.474-.329,2.2-.323,1.426-.535,2.119-.455,1.37-.73,2.032a22.253,22.253,0,0,1-2,3.757,22.192,22.192,0,0,1-2.651,3.273,21.957,21.957,0,0,1-3.213,2.7,21.587,21.587,0,0,1-3.688,2.039c-.65.28-1.321.53-1.994.744a21.256,21.256,0,0,1-4.236.88A21.656,21.656,0,0,1,1.879,44.233Z" transform="translate(20.592 0.452)" fill="#fff" opacity="0.41"/>
    </g>
  </g>
</svg>
