<svg xmlns="http://www.w3.org/2000/svg" xmlns:xlink="http://www.w3.org/1999/xlink" width="390" height="28" viewBox="0 0 390 28"><defs><style>.a{fill:#3f75e2;stroke:#707070;}.b{fill:#c3d7ff;stroke:#c3d7ff;stroke-width:15px;}.c{clip-path:url(#a);}.d{fill:url(#b);}.e{fill:url(#c);}.f{fill:#fff;opacity:0.41;}.g{clip-path:url(#d);}.h{clip-path:url(#g);}.i{clip-path:url(#j);}.j{clip-path:url(#m);}.k{clip-path:url(#p);}.l{clip-path:url(#s);}.m{clip-path:url(#v);}.n{stroke:none;}.o{fill:none;}</style><clipPath id="a"><circle class="a" cx="12.5" cy="12.5" r="12.5" transform="translate(-0.134 0.169)"/></clipPath><linearGradient id="b" x1="0.5" y1="0.745" x2="0.5" y2="0.015" gradientUnits="objectBoundingBox"><stop offset="0" stop-color="#ffa"/><stop offset="1" stop-color="#ffa800"/></linearGradient><linearGradient id="c" x1="0.5" y1="0.404" y2="0.015" xlink:href="#b"/><clipPath id="d"><circle class="a" cx="12.5" cy="12.5" r="12.5" transform="translate(0.053 0.169)"/></clipPath><clipPath id="g"><circle class="a" cx="12.5" cy="12.5" r="12.5" transform="translate(0.14 0.169)"/></clipPath><clipPath id="j"><ellipse class="a" cx="12" cy="12.5" rx="12" ry="12.5" transform="translate(0.228 0.169)"/></clipPath><clipPath id="m"><ellipse class="a" cx="12" cy="12.5" rx="12" ry="12.5" transform="translate(0.415 0.169)"/></clipPath><clipPath id="p"><circle class="a" cx="12.5" cy="12.5" r="12.5" transform="translate(-0.497 0.169)"/></clipPath><clipPath id="s"><circle class="a" cx="12.5" cy="12.5" r="12.5" transform="translate(-0.31 0.169)"/></clipPath><clipPath id="v"><circle class="a" cx="12.5" cy="12.5" r="12.5" transform="translate(-0.222 0.169)"/></clipPath></defs><g transform="translate(-11 -3108)"><g class="b" transform="translate(91 3108)"><ellipse class="n" cx="14.5" cy="14" rx="14.5" ry="14"/><ellipse class="o" cx="14.5" cy="14" rx="7" ry="6.5"/></g><g transform="translate(93.134 3109.831)"><g class="c" transform="translate(0 0)"><g transform="translate(-30.225 -3.361)"><path class="d" d="M-1.669-5.606,1.271,27.34l27.867-.033L34.87,9.855s6.166-8.149.929-7.266S24.574-6.986,19.224-6.859-1.669-5.606-1.669-5.606Z" transform="translate(26.496 6.86)"/><path class="e" d="M0,4.25V22.087H27.792l.016-17.82S25.8-.779,20.56.1,12.88,8.626,7.53,8.753A8.353,8.353,0,0,1,0,4.25Z" transform="translate(0 12.114)"/></g></g></g><path class="f" d="M1.164,27.4c-.319,0-.64-.011-.957-.034A13.309,13.309,0,0,0,8.928,23a13.8,13.8,0,0,0,3.56-9.286A13.634,13.634,0,0,0,0,.051C.385.017.776,0,1.164,0A13.411,13.411,0,0,1,2.539.071,13.165,13.165,0,0,1,5.162.616c.417.132.833.287,1.235.461A13.371,13.371,0,0,1,8.681,2.339a13.6,13.6,0,0,1,1.99,1.673,13.745,13.745,0,0,1,1.642,2.027,13.782,13.782,0,0,1,1.24,2.327c.17.41.322.834.452,1.259s.243.871.331,1.313.158.9.2,1.36.069.933.069,1.4-.023.938-.069,1.4-.114.913-.2,1.36-.2.883-.331,1.313-.282.848-.452,1.259a13.783,13.783,0,0,1-1.24,2.327,13.745,13.745,0,0,1-1.642,2.027,13.6,13.6,0,0,1-1.99,1.673A13.37,13.37,0,0,1,6.4,26.32c-.4.173-.818.328-1.235.461a13.165,13.165,0,0,1-2.624.545A13.413,13.413,0,0,1,1.164,27.4Z" transform="translate(105.005 3108.214)"/><g class="b" transform="translate(133 3108)"><ellipse class="n" cx="14.5" cy="14" rx="14.5" ry="14"/><ellipse class="o" cx="14.5" cy="14" rx="7" ry="6.5"/></g><g transform="translate(134.947 3109.831)"><g class="g" transform="translate(0 0)"><g transform="translate(-31.533 -3.361)"><path class="d" d="M-1.669-5.606,1.271,27.34l27.867-.033L34.87,9.855s6.166-8.149.929-7.266S24.574-6.986,19.224-6.859-1.669-5.606-1.669-5.606Z" transform="translate(26.496 6.86)"/><path class="e" d="M0,4.25V22.087H27.792l.016-17.82S25.8-.779,20.56.1,12.88,8.626,7.53,8.753A8.353,8.353,0,0,1,0,4.25Z" transform="translate(0 12.114)"/></g></g></g><path class="f" d="M1.164,27.4c-.319,0-.64-.011-.957-.034A13.309,13.309,0,0,0,8.928,23a13.8,13.8,0,0,0,3.56-9.286A13.634,13.634,0,0,0,0,.051C.385.017.776,0,1.164,0A13.411,13.411,0,0,1,2.539.071,13.165,13.165,0,0,1,5.162.616c.417.132.833.287,1.235.461A13.371,13.371,0,0,1,8.681,2.339a13.6,13.6,0,0,1,1.99,1.673,13.745,13.745,0,0,1,1.642,2.027,13.782,13.782,0,0,1,1.24,2.327c.17.41.322.834.452,1.259s.243.871.331,1.313.158.9.2,1.36.069.933.069,1.4-.023.938-.069,1.4-.114.913-.2,1.36-.2.883-.331,1.313-.282.848-.452,1.259a13.783,13.783,0,0,1-1.24,2.327,13.745,13.745,0,0,1-1.642,2.027,13.6,13.6,0,0,1-1.99,1.673A13.37,13.37,0,0,1,6.4,26.32c-.4.173-.818.328-1.235.461a13.165,13.165,0,0,1-2.624.545A13.413,13.413,0,0,1,1.164,27.4Z" transform="translate(145.509 3108.214)"/><g class="b" transform="translate(173 3108)"><circle class="n" cx="14" cy="14" r="14"/><circle class="o" cx="14" cy="14" r="6.5"/></g><g transform="translate(174.859 3109.831)"><g class="h" transform="translate(0 0)"><g transform="translate(-30.941 -3.361)"><path class="d" d="M-1.669-5.606,1.271,27.34l27.867-.033L34.87,9.855s6.166-8.149.929-7.266S24.574-6.986,19.224-6.859-1.669-5.606-1.669-5.606Z" transform="translate(26.496 6.86)"/><path class="e" d="M0,4.25V22.087H27.792l.016-17.82S25.8-.779,20.56.1,12.88,8.626,7.53,8.753A8.353,8.353,0,0,1,0,4.25Z" transform="translate(0 12.114)"/></g></g></g><path class="f" d="M1.164,27.4c-.319,0-.64-.011-.957-.034A13.309,13.309,0,0,0,8.928,23a13.8,13.8,0,0,0,3.56-9.286A13.634,13.634,0,0,0,0,.051C.385.017.776,0,1.164,0A13.411,13.411,0,0,1,2.539.071,13.165,13.165,0,0,1,5.162.616c.417.132.833.287,1.235.461A13.371,13.371,0,0,1,8.681,2.339a13.6,13.6,0,0,1,1.99,1.673,13.745,13.745,0,0,1,1.642,2.027,13.782,13.782,0,0,1,1.24,2.327c.17.41.322.834.452,1.259s.243.871.331,1.313.158.9.2,1.36.069.933.069,1.4-.023.938-.069,1.4-.114.913-.2,1.36-.2.883-.331,1.313-.282.848-.452,1.259a13.783,13.783,0,0,1-1.24,2.327,13.745,13.745,0,0,1-1.642,2.027,13.6,13.6,0,0,1-1.99,1.673A13.37,13.37,0,0,1,6.4,26.32c-.4.173-.818.328-1.235.461a13.165,13.165,0,0,1-2.624.545A13.413,13.413,0,0,1,1.164,27.4Z" transform="translate(186.013 3108.214)"/><g class="b" transform="translate(213 3108)"><circle class="n" cx="14" cy="14" r="14"/><circle class="o" cx="14" cy="14" r="6.5"/></g><g transform="translate(214.772 3109.831)"><g class="i" transform="translate(0 0)"><g transform="translate(-30.35 -3.361)"><path class="d" d="M-1.669-5.606,1.271,27.34l27.867-.033L34.87,9.855s6.166-8.149.929-7.266S24.574-6.986,19.224-6.859-1.669-5.606-1.669-5.606Z" transform="translate(26.496 6.86)"/><path class="e" d="M0,4.25V22.087H27.792l.016-17.82S25.8-.779,20.56.1,12.88,8.626,7.53,8.753A8.353,8.353,0,0,1,0,4.25Z" transform="translate(0 12.114)"/></g></g></g><path class="f" d="M1.164,27.4c-.319,0-.64-.011-.957-.034A13.309,13.309,0,0,0,8.928,23a13.8,13.8,0,0,0,3.56-9.286A13.634,13.634,0,0,0,0,.051C.385.017.776,0,1.164,0A13.411,13.411,0,0,1,2.539.071,13.165,13.165,0,0,1,5.162.616c.417.132.833.287,1.235.461A13.371,13.371,0,0,1,8.681,2.339a13.6,13.6,0,0,1,1.99,1.673,13.745,13.745,0,0,1,1.642,2.027,13.782,13.782,0,0,1,1.24,2.327c.17.41.322.834.452,1.259s.243.871.331,1.313.158.9.2,1.36.069.933.069,1.4-.023.938-.069,1.4-.114.913-.2,1.36-.2.883-.331,1.313-.282.848-.452,1.259a13.783,13.783,0,0,1-1.24,2.327,13.745,13.745,0,0,1-1.642,2.027,13.6,13.6,0,0,1-1.99,1.673A13.37,13.37,0,0,1,6.4,26.32c-.4.173-.818.328-1.235.461a13.165,13.165,0,0,1-2.624.545A13.413,13.413,0,0,1,1.164,27.4Z" transform="translate(226.517 3108.214)"/><g class="b" transform="translate(255 3108)"><ellipse class="n" cx="13" cy="14" rx="13" ry="14"/><ellipse class="o" cx="13" cy="14" rx="5.5" ry="6.5"/></g><g transform="translate(256.585 3109.831)"><g class="j" transform="translate(0 0)"><g transform="translate(-31.658 -3.361)"><path class="d" d="M-1.669-5.606,1.271,27.34l27.867-.033L34.87,9.855s6.166-8.149.929-7.266S24.574-6.986,19.224-6.859-1.669-5.606-1.669-5.606Z" transform="translate(26.496 6.86)"/><path class="e" d="M0,4.25V22.087H27.792l.016-17.82S25.8-.779,20.56.1,12.88,8.626,7.53,8.753A8.353,8.353,0,0,1,0,4.25Z" transform="translate(0 12.114)"/></g></g></g><path class="f" d="M1.164,27.4c-.319,0-.64-.011-.957-.034A13.309,13.309,0,0,0,8.928,23a13.8,13.8,0,0,0,3.56-9.286A13.634,13.634,0,0,0,0,.051C.385.017.776,0,1.164,0A13.411,13.411,0,0,1,2.539.071,13.165,13.165,0,0,1,5.162.616c.417.132.833.287,1.235.461A13.371,13.371,0,0,1,8.681,2.339a13.6,13.6,0,0,1,1.99,1.673,13.745,13.745,0,0,1,1.642,2.027,13.782,13.782,0,0,1,1.24,2.327c.17.41.322.834.452,1.259s.243.871.331,1.313.158.9.2,1.36.069.933.069,1.4-.023.938-.069,1.4-.114.913-.2,1.36-.2.883-.331,1.313-.282.848-.452,1.259a13.783,13.783,0,0,1-1.24,2.327,13.745,13.745,0,0,1-1.642,2.027,13.6,13.6,0,0,1-1.99,1.673A13.37,13.37,0,0,1,6.4,26.32c-.4.173-.818.328-1.235.461a13.165,13.165,0,0,1-2.624.545A13.413,13.413,0,0,1,1.164,27.4Z" transform="translate(267.021 3108.214)"/><g class="b" transform="translate(295 3108)"><circle class="n" cx="14" cy="14" r="14"/><circle class="o" cx="14" cy="14" r="6.5"/></g><g transform="translate(296.497 3109.831)"><g class="k" transform="translate(0 0)"><g transform="translate(-31.067 -3.361)"><path class="d" d="M-1.669-5.606,1.271,27.34l27.867-.033L34.87,9.855s6.166-8.149.929-7.266S24.574-6.986,19.224-6.859-1.669-5.606-1.669-5.606Z" transform="translate(26.496 6.86)"/><path class="e" d="M0,4.25V22.087H27.792l.016-17.82S25.8-.779,20.56.1,12.88,8.626,7.53,8.753A8.353,8.353,0,0,1,0,4.25Z" transform="translate(0 12.114)"/></g></g></g><path class="f" d="M1.164,27.4c-.319,0-.64-.011-.957-.034A13.309,13.309,0,0,0,8.928,23a13.8,13.8,0,0,0,3.56-9.286A13.634,13.634,0,0,0,0,.051C.385.017.776,0,1.164,0A13.411,13.411,0,0,1,2.539.071,13.165,13.165,0,0,1,5.162.616c.417.132.833.287,1.235.461A13.371,13.371,0,0,1,8.681,2.339a13.6,13.6,0,0,1,1.99,1.673,13.745,13.745,0,0,1,1.642,2.027,13.782,13.782,0,0,1,1.24,2.327c.17.41.322.834.452,1.259s.243.871.331,1.313.158.9.2,1.36.069.933.069,1.4-.023.938-.069,1.4-.114.913-.2,1.36-.2.883-.331,1.313-.282.848-.452,1.259a13.783,13.783,0,0,1-1.24,2.327,13.745,13.745,0,0,1-1.642,2.027,13.6,13.6,0,0,1-1.99,1.673A13.37,13.37,0,0,1,6.4,26.32c-.4.173-.818.328-1.235.461a13.165,13.165,0,0,1-2.624.545A13.413,13.413,0,0,1,1.164,27.4Z" transform="translate(307.525 3108.214)"/><g class="b" transform="translate(331 3108)"><circle class="n" cx="14" cy="14" r="14"/><circle class="o" cx="14" cy="14" r="6.5"/></g><path class="f" d="M1.164,27.4c-.319,0-.64-.011-.957-.034A13.309,13.309,0,0,0,8.928,23a13.8,13.8,0,0,0,3.56-9.286A13.634,13.634,0,0,0,0,.051C.385.017.776,0,1.164,0A13.411,13.411,0,0,1,2.539.071,13.165,13.165,0,0,1,5.162.616c.417.132.833.287,1.235.461A13.371,13.371,0,0,1,8.681,2.339a13.6,13.6,0,0,1,1.99,1.673,13.745,13.745,0,0,1,1.642,2.027,13.782,13.782,0,0,1,1.24,2.327c.17.41.322.834.452,1.259s.243.871.331,1.313.158.9.2,1.36.069.933.069,1.4-.023.938-.069,1.4-.114.913-.2,1.36-.2.883-.331,1.313-.282.848-.452,1.259a13.783,13.783,0,0,1-1.24,2.327,13.745,13.745,0,0,1-1.642,2.027,13.6,13.6,0,0,1-1.99,1.673A13.37,13.37,0,0,1,6.4,26.32c-.4.173-.818.328-1.235.461a13.165,13.165,0,0,1-2.624.545A13.413,13.413,0,0,1,1.164,27.4Z" transform="translate(344.507 3108.214)"/><g class="b" transform="translate(373 3108)"><circle class="n" cx="14" cy="14" r="14"/><circle class="o" cx="14" cy="14" r="6.5"/></g><path class="f" d="M1.164,27.4c-.319,0-.64-.011-.957-.034A13.309,13.309,0,0,0,8.928,23a13.8,13.8,0,0,0,3.56-9.286A13.634,13.634,0,0,0,0,.051C.385.017.776,0,1.164,0A13.411,13.411,0,0,1,2.539.071,13.165,13.165,0,0,1,5.162.616c.417.132.833.287,1.235.461A13.371,13.371,0,0,1,8.681,2.339a13.6,13.6,0,0,1,1.99,1.673,13.745,13.745,0,0,1,1.642,2.027,13.782,13.782,0,0,1,1.24,2.327c.17.41.322.834.452,1.259s.243.871.331,1.313.158.9.2,1.36.069.933.069,1.4-.023.938-.069,1.4-.114.913-.2,1.36-.2.883-.331,1.313-.282.848-.452,1.259a13.783,13.783,0,0,1-1.24,2.327,13.745,13.745,0,0,1-1.642,2.027,13.6,13.6,0,0,1-1.99,1.673A13.37,13.37,0,0,1,6.4,26.32c-.4.173-.818.328-1.235.461a13.165,13.165,0,0,1-2.624.545A13.413,13.413,0,0,1,1.164,27.4Z" transform="translate(385.011 3108.214)"/><g transform="translate(11.409 3107.93)"><g class="b" transform="translate(-0.409 0.07)"><ellipse class="n" cx="14.5" cy="14" rx="14.5" ry="14"/><ellipse class="o" cx="14.5" cy="14" rx="7" ry="6.5"/></g><g transform="translate(1.901 1.901)"><g class="l" transform="translate(0 0)"><g transform="translate(-31.408 -3.361)"><path class="d" d="M-1.669-5.606,1.271,27.34l27.867-.033L34.87,9.855s6.166-8.149.929-7.266S24.574-6.986,19.224-6.859-1.669-5.606-1.669-5.606Z" transform="translate(26.496 6.86)"/><path class="e" d="M0,4.25V22.087H27.792l.016-17.82S25.8-.779,20.56.1,12.88,8.626,7.53,8.753A8.353,8.353,0,0,1,0,4.25Z" transform="translate(0 12.114)"/></g></g></g><path class="f" d="M1.164,27.4c-.319,0-.64-.011-.957-.034A13.309,13.309,0,0,0,8.928,23a13.8,13.8,0,0,0,3.56-9.286A13.634,13.634,0,0,0,0,.051C.385.017.776,0,1.164,0A13.411,13.411,0,0,1,2.539.071,13.165,13.165,0,0,1,5.162.616c.417.132.833.287,1.235.461A13.371,13.371,0,0,1,8.681,2.339a13.6,13.6,0,0,1,1.99,1.673,13.745,13.745,0,0,1,1.642,2.027,13.782,13.782,0,0,1,1.24,2.327c.17.41.322.834.452,1.259s.243.871.331,1.313.158.9.2,1.36.069.933.069,1.4-.023.938-.069,1.4-.114.913-.2,1.36-.2.883-.331,1.313-.282.848-.452,1.259a13.783,13.783,0,0,1-1.24,2.327,13.745,13.745,0,0,1-1.642,2.027,13.6,13.6,0,0,1-1.99,1.673A13.37,13.37,0,0,1,6.4,26.32c-.4.173-.818.328-1.235.461a13.165,13.165,0,0,1-2.624.545A13.413,13.413,0,0,1,1.164,27.4Z" transform="translate(12.588 0.284)"/></g><g transform="translate(51.322 3107.93)"><g class="b" transform="translate(-0.322 0.07)"><ellipse class="n" cx="14.5" cy="14" rx="14.5" ry="14"/><ellipse class="o" cx="14.5" cy="14" rx="7" ry="6.5"/></g><g transform="translate(1.901 1.901)"><g class="m" transform="translate(0 0)"><g transform="translate(-30.816 -3.361)"><path class="d" d="M-1.669-5.606,1.271,27.34l27.867-.033L34.87,9.855s6.166-8.149.929-7.266S24.574-6.986,19.224-6.859-1.669-5.606-1.669-5.606Z" transform="translate(26.496 6.86)"/><path class="e" d="M0,4.25V22.087H27.792l.016-17.82S25.8-.779,20.56.1,12.88,8.626,7.53,8.753A8.353,8.353,0,0,1,0,4.25Z" transform="translate(0 12.114)"/></g></g></g><path class="f" d="M1.164,27.4c-.319,0-.64-.011-.957-.034A13.309,13.309,0,0,0,8.928,23a13.8,13.8,0,0,0,3.56-9.286A13.634,13.634,0,0,0,0,.051C.385.017.776,0,1.164,0A13.411,13.411,0,0,1,2.539.071,13.165,13.165,0,0,1,5.162.616c.417.132.833.287,1.235.461A13.371,13.371,0,0,1,8.681,2.339a13.6,13.6,0,0,1,1.99,1.673,13.745,13.745,0,0,1,1.642,2.027,13.782,13.782,0,0,1,1.24,2.327c.17.41.322.834.452,1.259s.243.871.331,1.313.158.9.2,1.36.069.933.069,1.4-.023.938-.069,1.4-.114.913-.2,1.36-.2.883-.331,1.313-.282.848-.452,1.259a13.783,13.783,0,0,1-1.24,2.327,13.745,13.745,0,0,1-1.642,2.027,13.6,13.6,0,0,1-1.99,1.673A13.37,13.37,0,0,1,6.4,26.32c-.4.173-.818.328-1.235.461a13.165,13.165,0,0,1-2.624.545A13.413,13.413,0,0,1,1.164,27.4Z" transform="translate(13.179 0.284)"/></g></g></svg>