<svg xmlns="http://www.w3.org/2000/svg" xmlns:xlink="http://www.w3.org/1999/xlink" width="68" height="68" viewBox="0 0 68 68"><defs><style>.a{fill:none;stroke:#fff;}.b{clip-path:url(#c);}.c{fill:#2e001e;}.d{fill:#ff2bc2;}.e{filter:url(#a);}</style><filter id="a" x="-7" y="-6" width="86" height="86" filterUnits="userSpaceOnUse"><feOffset dx="2" dy="3" input="SourceAlpha"/><feGaussianBlur stdDeviation="3" result="b"/><feFlood flood-opacity="0.161"/><feComposite operator="in" in2="b"/><feComposite in="SourceGraphic"/></filter><clipPath id="c"><g class="e" transform="matrix(1, 0, 0, 1, 0, 0)"><circle class="a" cx="34" cy="34" r="34" transform="translate(0.13 0.13)"/></g></clipPath></defs><g class="b" transform="translate(-0.131 -0.131)"><g transform="translate(0 0.849)"><path class="c" d="M2.333,2.333H64.607V62.908H2.333Z" transform="translate(0.497 0.497)"/><path class="d" d="M0,0V66.236H67.934V0ZM2.831,2.831H65.1V63.405H2.831Z"/><path class="d" d="M47.089,25.065a3.887,3.887,0,0,0-1.642-.283c-3.567,0-5.944,2.746-5.944,7.3,0,5.208,2.434,7.3,5.6,7.3a5.34,5.34,0,0,0,1.953-.311V25.065ZM34.408,32.311c0-6.6,4.246-11.747,11.209-11.747a12.553,12.553,0,0,1,1.472.057v-7.36a.284.284,0,0,1,.283-.283H51.93c.226,0,.283.085.283.226V39.076a20.162,20.162,0,0,0,.142,2.774c0,.2,0,.226-.17.311A16.861,16.861,0,0,1,44.938,43.8c-6.142,0-10.53-3.793-10.53-11.492Zm-9.652-4.586L32.682,43.1c.142.226.057.453-.17.453H27.587a.555.555,0,0,1-.594-.368q-2.717-5.6-5.548-11.634h-.057c-1.7,3.793-3.567,7.926-5.378,11.662a.544.544,0,0,1-.51.311H10.8c-.283,0-.311-.226-.17-.4l7.756-14.917-7.5-14.832a.251.251,0,0,1,.2-.425h4.869c.283,0,.425.057.51.311,1.783,3.765,3.595,7.473,5.293,11.266h.057c1.642-3.736,3.453-7.5,5.18-11.209.142-.226.226-.368.51-.368h4.557c.226,0,.311.17.17.425L24.756,27.726Z" transform="translate(2.248 2.76)"/></g></g></svg>